<svg id="Layer_1" data-name="Layer 1" xmlns="http://www.w3.org/2000/svg" viewBox="0 0 512 512"><defs><style>.cls-1{fill:#fdc113;}</style></defs><title>13</title><path class="cls-1" d="M424.13,507.09a15.55,15.55,0,0,1-6.64-1.48L256,430.08,94.5,505.61a15.7,15.7,0,0,1-21.4-19.53l61.54-172.72L9.51,188a15.73,15.73,0,0,1-3.4-17.14c2.42-5.88,8.15-9,14.5-9H188.89L241.23,14.31c4.44-12.53,25.1-12.53,29.54,0l52.34,147.53H491.39c6.35,0,12.08,3.11,14.5,9a15.73,15.73,0,0,1-3.4,17.14L377.36,313.36,438.9,486.08a15.73,15.73,0,0,1-14.77,21ZM256,397a15.7,15.7,0,0,1,6.64,1.47l134.07,62.7L344.47,314.55a15.74,15.74,0,0,1,3.68-16.4L453.51,192.58H312a15.67,15.67,0,0,1-14.77-10.45L256,66.36,214.73,182.13A15.67,15.67,0,0,1,200,192.58H58.49L163.85,298.16a15.73,15.73,0,0,1,3.68,16.4L115.29,461.18l134.07-62.7A15.7,15.7,0,0,1,256,397Z"/></svg>