<svg id="Layer_1" data-name="Layer 1" xmlns="http://www.w3.org/2000/svg" viewBox="0 0 502.18 502.17"><defs><style>.cls-1{fill:#fdc113;}</style></defs><title>12</title><polygon class="cls-1" points="419.22 502.17 419.22 502.17 419.22 502.17 419.22 502.17"/><path class="cls-1" d="M505.89,170.83c-2.42-5.88-8.15-9-14.5-9H323.11L270.77,14.31c-4.44-12.53-25.1-12.53-29.54,0L188.89,161.84H20.61c-6.35,0-12.08,3.11-14.5,9A15.73,15.73,0,0,0,9.51,188L134.64,313.36,73.1,486.08a15.7,15.7,0,0,0,21.4,19.53L256,430.08l161.49,75.53a15.7,15.7,0,0,0,21.41-19.53L377.36,313.36,502.49,188A15.73,15.73,0,0,0,505.89,170.83Z" transform="translate(-4.91 -4.91)"/></svg>