<svg id="Layer_1" data-name="Layer 1" xmlns="http://www.w3.org/2000/svg" viewBox="0 0 512 512"><defs><style>.cls-1{fill:#fdc113;}</style></defs><title>14</title><path class="cls-1" d="M496.53,174c-2.33-5.66-7.85-8.65-14-8.65h-162l-50.37-142c-4.28-12.06-24.16-12.06-28.44,0l-50.37,142h-162c-6.11,0-11.63,3-14,8.65a15.16,15.16,0,0,0,3.28,16.5L139.19,311.21,80,477.46a15.12,15.12,0,0,0,20.61,18.8L256,423.56l155.44,72.7a15.12,15.12,0,0,0,20.61-18.8L372.81,311.21,493.25,190.52A15.16,15.16,0,0,0,496.53,174ZM344.7,296.57a15.14,15.14,0,0,0-3.54,15.79L391.44,453.5l-129-60.36a15.18,15.18,0,0,0-6.39-1.42V73.46L295.72,184.9a15.09,15.09,0,0,0,14.22,10H446.11Z"/></svg>